# xmcd
#
# Track frame offsets: 
#        150
#        15034
#        41007
#        60702
#        79060
#        106342
#        127310
#        154530
#        191275
#        225622
#
# Disc length: 3498 seconds
#
# Revision: 6
# Processed by: cddbd v1.5.2PL0 Copyright (c) Steve Scherf et al.
# Submitted via: ExactAudioCopy v0.99pb3
#
DISCID=710da80a
DTITLE=Bill Evans - You Must Believe In Spring
DYEAR=1977
DGENRE=Jazz
TTITLE0=B Minor Waltz (For Ellaine)
TTITLE1=You Must Believe In Spring
TTITLE2=Gary's Theme
TTITLE3=We Will Meet Again (For Harry)
TTITLE4=The Peacocks
TTITLE5=Sometime Ago
TTITLE6=Theme From M*A*S*H (aka Suicide Is Painless)
TTITLE7=Without A Song
TTITLE8=Freddie Freeloader
TTITLE9=All Of You
EXTD=YEAR: 1977
EXTT0=
EXTT1=
EXTT2=
EXTT3=
EXTT4=
EXTT5=
EXTT6=
EXTT7=
EXTT8=
EXTT9=
PLAYORDER=
